<svg width="30" height="30" fill="none" xmlns="http://www.w3.org/2000/svg"><path d="M17.5 16.25h-1.25V15a1.25 1.25 0 00-2.5 0v1.25H12.5a1.25 1.25 0 000 2.5h1.25V20a1.25 1.25 0 002.5 0v-1.25h1.25a1.25 1.25 0 000-2.5z" fill="#fff" fill-opacity=".38"/><path d="M24.375 8.812h-8.75l-3.287-3.975a1.25 1.25 0 00-.963-.462h-5.75A3.087 3.087 0 002.5 7.412v15.175a3.088 3.088 0 003.125 3.038h18.75a3.088 3.088 0 003.125-3.038V11.85a3.088 3.088 0 00-3.125-3.038zM25 22.562a.574.574 0 01-.625.538H5.625A.575.575 0 015 22.562V7.412a.575.575 0 01.625-.537h5.162l3.25 3.975a1.25 1.25 0 00.963.463h9.375a.576.576 0 01.625.537v10.713z" fill="#fff" fill-opacity=".38"/></svg>